<svg class="t-sociallinks__svg" width="44px" height="44px" viewBox="0 0 100 100" fill="none" xmlns="http://www.w3.org/2000/svg"><path d="M66.9644 10H33.04C20.3227 10 10 20.3227 10 32.9573V67.1167C10 79.6816 20.3227 90 33.04 90H66.96C79.6816 90 90 79.6816 90 67.0384V32.9616C90.0044 20.3227 79.6816 10 66.9644 10ZM29.2 50.0022C29.2 38.5083 38.5257 29.2 50.0022 29.2C61.4786 29.2 70.8 38.5083 70.8 50.0022C70.8 61.4961 61.4743 70.8 50.0022 70.8C38.5257 70.8 29.2 61.4961 29.2 50.0022ZM72.8854 31.2027C70.2079 31.2027 68.0789 29.0824 68.0789 26.4049C68.0789 23.7273 70.2035 21.6027 72.8854 21.6027C75.5586 21.6027 77.6833 23.7273 77.6833 26.4049C77.6833 29.0824 75.5586 31.2027 72.8854 31.2027Z" fill="#121212"></path><path d="M50.0022 36.4011C42.4659 36.4011 36.4011 42.4876 36.4011 50.0022C36.4011 57.5124 42.4659 63.6033 50.0022 63.6033C57.5429 63.6033 63.6033 57.5124 63.6033 50.0022C63.6033 42.492 57.4514 36.4011 50.0022 36.4011Z" fill="#121212"></path></svg>