<svg class="t-sociallinks__svg" width="44px" height="44px" viewBox="0 0 100 100" fill="none" xmlns="http://www.w3.org/2000/svg"><path fill-rule="evenodd" clip-rule="evenodd" d="M50.168 10C60.8239 10.004 70.8257 14.1522 78.346 21.6819C85.8676 29.2114 90.0066 39.2185 90 49.8636C89.9906 71.8252 72.1203 89.6956 50.1668 89.6956H50.1508C43.4852 89.6929 36.9338 88.0208 31.1162 84.8468L10 90.3853L15.6516 69.7437C12.1665 63.7042 10.3323 56.851 10.3349 49.8304C10.343 27.8676 28.2134 10 50.168 10V10ZM61.5376 54.7631C62.4507 55.0954 67.3433 57.5023 68.3389 58.0009C68.5313 58.0971 68.7113 58.1842 68.8784 58.265C69.5753 58.602 70.0458 58.8296 70.2462 59.1651C70.4947 59.5799 70.4947 61.5736 69.6654 63.8982C68.8359 66.2229 64.8605 68.3442 62.9478 68.63C61.2319 68.8865 59.0627 68.9928 56.6782 68.2353C55.2322 67.7767 53.3794 67.1653 51.0041 66.1392C41.6698 62.1082 35.3628 53.06 34.1747 51.3556C34.0919 51.2368 34.0341 51.1538 34.0017 51.1106L33.9981 51.1056C33.486 50.4243 29.9372 45.7022 29.9372 40.8149C29.9372 36.2325 32.1873 33.8303 33.2244 32.7232C33.2961 32.6467 33.3619 32.5763 33.4208 32.5118C34.3341 31.5149 35.412 31.2664 36.0751 31.2664C36.7385 31.2664 37.4029 31.2717 37.9826 31.301C38.0541 31.3046 38.1286 31.304 38.2056 31.3037C38.786 31.3001 39.5087 31.2957 40.2221 33.0089C40.4976 33.6707 40.9012 34.653 41.3265 35.6882C42.1818 37.7702 43.1251 40.066 43.2912 40.399C43.5397 40.8974 43.7058 41.4782 43.3736 42.1427C43.323 42.2436 43.2763 42.3387 43.2318 42.4295C42.9831 42.9364 42.7995 43.3104 42.378 43.8029C42.2125 43.9963 42.0413 44.2045 41.8703 44.4131C41.5273 44.8309 41.1842 45.2488 40.8853 45.5467C40.387 46.0425 39.8686 46.5808 40.4493 47.5777C41.0303 48.5731 43.028 51.8323 45.9867 54.472C49.1661 57.3091 51.93 58.5078 53.3318 59.1157C53.6058 59.2346 53.8279 59.3308 53.9907 59.4124C54.9849 59.9109 55.5658 59.8284 56.1465 59.1637C56.7274 58.4993 58.6347 56.2583 59.298 55.2615C59.9612 54.2646 60.6259 54.4307 61.5376 54.7631V54.7631Z" fill="#121212"></path></svg>