<svg class="t-sociallinks__svg" width="44px" height="44px" viewBox="0 0 100 100" fill="none" xmlns="http://www.w3.org/2000/svg"><path d="M90.9491 31.8675C90.1526 25.5784 86.5194 21.6336 80.0708 21.0509C72.6871 20.3839 56.7031 20 49.2893 20C34.1245 20 27.3476 20.3704 20.1762 21.1127C13.342 21.8188 10.3503 24.8557 9.1744 31.1252C8.35082 35.5187 8 39.6336 8 49.3586C8 58.0944 8.41255 63.5885 9.05094 68.2108C9.92873 74.5586 14.2861 78.1255 20.6715 78.657C28.1004 79.2758 42.9822 79.5844 50.3403 79.5844C57.4499 79.5844 73.4504 79.214 80.5646 78.41C86.932 77.6903 89.9598 74.2891 90.9491 68.0256C90.9491 68.0256 92 61.1644 92 49.2969C92 42.5395 91.5061 36.255 90.9491 31.8675ZM41.0685 61.598V37.4504L64.0612 49.4008L41.0685 61.598Z" fill="#121212"></path></svg>