<svg class="t-sociallinks__svg" width="44px" height="44px" viewBox="0 0 100 100" fill="none" xmlns="http://www.w3.org/2000/svg"><path d="M78 18H22C18.8174 18 15.7652 19.2643 13.5147 21.5147C11.2643 23.7652 10 26.8174 10 30V70C10 73.1826 11.2643 76.2348 13.5147 78.4853C15.7652 80.7357 18.8174 82 22 82H78C81.1826 82 84.2348 80.7357 86.4853 78.4853C88.7357 76.2348 90 73.1826 90 70V30C90 26.8174 88.7357 23.7652 86.4853 21.5147C84.2348 19.2643 81.1826 18 78 18V18ZM76.36 26L52.84 49.52C52.4681 49.8949 52.0257 50.1925 51.5383 50.3956C51.0509 50.5986 50.528 50.7032 50 50.7032C49.472 50.7032 48.9491 50.5986 48.4617 50.3956C47.9743 50.1925 47.5319 49.8949 47.16 49.52L23.64 26H76.36ZM82 70C82 71.0609 81.5786 72.0783 80.8284 72.8284C80.0783 73.5786 79.0609 74 78 74H22C20.9391 74 19.9217 73.5786 19.1716 72.8284C18.4214 72.0783 18 71.0609 18 70V31.64L41.52 55.16C43.77 57.4072 46.82 58.6694 50 58.6694C53.18 58.6694 56.23 57.4072 58.48 55.16L82 31.64V70Z" fill="#121212"></path></svg>