<svg class="t-sociallinks__svg" width="44px" height="44px" viewBox="0 0 100 100" fill="none" xmlns="http://www.w3.org/2000/svg"><path fill-rule="evenodd" clip-rule="evenodd" d="M45.065 10.238c-.473.116-1.904.392-3.18.614-2.71.472-6.429 1.712-9.206 3.07-2.552 1.248-3.36 1.726-6.868 4.06-.84.559-6.632 6.273-7.725 7.62-.958 1.182-2.813 4.174-3.871 6.246-2.954 5.783-4.232 11.31-4.215 18.22.02 7.85 1.897 14.64 5.814 21.032 1.014 1.655 1.026 1.45-.443 8.143-1.07 4.875-1.138 5.58-.583 6.04.452.375 1.783.19 7.1-.992 4.868-1.082 5.554-1.142 6.409-.554 3.735 2.571 8.328 4.415 13.947 5.6 2.849.6 3.685.671 7.848.662 4.059-.008 5.05-.092 7.679-.647 2.843-.601 7.199-1.911 7.763-2.334.14-.106.641-.344 1.113-.53 1.063-.418 3.862-1.971 5.583-3.098 5.56-3.64 10.54-9.291 13.64-15.474 1.34-2.672 2.984-7.553 3.527-10.472.508-2.725.577-10.7.121-14.009-.673-4.894-3.02-10.92-5.913-15.186-6.624-9.768-15.461-15.573-26.87-17.65-2.745-.5-4.134-.617-7.112-.597-2.035.014-4.086.12-4.558.236ZM33.047 38.074c.438.438.954 1.601 2.333 5.259.57 1.513 3.055 6.168 4.214 7.896 1.397 2.082 2.858 3.443 3.586 3.34.533-.077.535-.091.535-6.331v-6.254l-.97-1.557c-.92-1.478-.95-1.588-.603-2.207l.365-.651h11.004l.31.613c.226.448.31 2.376.313 7.165.004 6.226.028 6.565.479 6.806.687.368 1.432-.006 2.746-1.38 1.2-1.253 3.401-4.302 3.401-4.71 0-.134.151-.394.335-.578.368-.368 2.957-5.4 3.2-6.222.084-.282.435-.778.78-1.103.6-.563.805-.595 4.427-.67 3.232-.067 3.893-.017 4.427.333.57.373.615.52.488 1.595-.16 1.341-.583 2.25-2.712 5.82-.826 1.386-1.614 2.71-1.751 2.944-.474.806-1.71 2.632-1.864 2.754-.466.367-1.689 2.632-1.689 3.127 0 .396.72 1.326 2.29 2.956 2.97 3.083 5.66 6.449 6.454 8.073.689 1.408.66 2.834-.064 3.11-.721.278-8.442.16-9.002-.136-.295-.156-1.032-.846-1.639-1.533-2.419-2.742-6.089-6.183-7.15-6.706-2.606-1.284-3.152-.553-3.152 4.222 0 3.67-.137 3.914-2.349 4.19-3.111.39-7.514-.43-10.244-1.907-2.893-1.565-6.164-4.463-8.38-7.425-.807-1.08-1.53-2.017-1.604-2.085-.241-.219-3.723-6.149-4.299-7.322-1.112-2.265-2.065-4.47-2.065-4.776a.908.908 0 0 0-.226-.545c-.431-.443-1.529-4.753-1.356-5.32.426-1.398.615-1.45 4.94-1.367 3.64.07 4.032.12 4.492.582Z" fill="#121212"></path></svg>